# xmcd
#
# Track frame offsets: 
#        150
#        51700
#        90695
#        138470
#
# Disc length: 3777 seconds
#
# Revision: 4
# Processed by: cddbd v1.5.2PL0 Copyright (c) Steve Scherf et al.
# Submitted via: ExactAudioCopy v0.99pb5
#
DISCID=380ebf04
DTITLE=Messiaen, Olivier - Piano Works - Volume 5 (Peter Hill - Brilli
DTITLE=ant Classics, 7cd)
DYEAR=1989
DGENRE=Piano
TTITLE0=Catalogue d'oiseaux (1956-58) - Book 7 - I. La Buse variable
TTITLE1=Catalogue d'oiseaux - Book 7 - II. Le Traquet rieur
TTITLE2=Catalogue d'oiseaux - Book 7 - III. Le Courlis cendré
TTITLE3=La Fauvette des jardins (1970)
EXTD=Peter Hill, piano YEAR: 1989
EXTT0=
EXTT1=
EXTT2=
EXTT3=
PLAYORDER=
